<svg id="Layer_1" data-name="Layer 1" xmlns="http://www.w3.org/2000/svg" viewBox="0 0 200 200"><defs><style>.cls-1{fill:#6370b5;}</style></defs><path class="cls-1" d="M148.9,100c0,1.86-.07,3.72-.21,5.58-.05.69-.14,1.37-.19,2.06-.22,3,.84-4.83.25-1.91a92,92,0,0,1-2.56,10.48c-.44,1.35-1.49,3-1.59,4.38,0-.42,2.38-5,.69-1.74-.3.59-.57,1.2-.87,1.78a84.35,84.35,0,0,1-5.38,9c-3,4.43,2.47-2.71-.06.12-1.16,1.3-2.27,2.63-3.48,3.89-1.06,1.1-2.16,2.16-3.28,3.18l-1.46,1.31-1.5,1.25c-1.32,1.08-.66.57,2-1.5-2.61,1-5.22,3.6-7.7,5-1.34.75-2.72,1.42-4.09,2.12-.8.42-3.61,1.57-.33.22,3.54-1.46-.22,0-1,.33a72.59,72.59,0,0,1-9,2.57c-.88.19-1.78.33-2.66.52-2.26.48-1.84-.81,1.92-.22-1.66-.26-3.81.36-5.53.43a103.85,103.85,0,0,1-10.44-.35c-2.5-.16,2.71.4,2.58.36-.82-.25-1.83-.3-2.68-.47q-3-.58-5.91-1.42c-1.5-.42-3-.9-4.45-1.42a13.74,13.74,0,0,0-2.49-1s4.35,2.09,2.34,1c-3.08-1.72-6.25-3.13-9.22-5.06-1.12-.73-2.51-2.13-3.77-2.61,3.36,1.28,3.13,2.57,1.48,1.09-.65-.58-1.33-1.13-2-1.71A93.39,93.39,0,0,1,61,129.76c-2.53-2.83,2.86,4.32-.06-.12-.84-1.27-1.72-2.52-2.51-3.83s-1.56-2.64-2.27-4c-.41-.78-.79-1.58-1.18-2.36-1.71-3.36.28-.44.4,1.14-.21-2.76-2.2-6.14-2.9-8.89-.45-1.75-.79-3.52-1.14-5.29s.09-3.65.22,1.92c0-.91-.2-1.84-.27-2.75a73.17,73.17,0,0,1-.05-10.47c.05-.69.12-1.38.17-2.07.28-3.84-.17,1.5-.29,1.9.57-1.91.72-4,1.2-6,.74-3,2-5.91,2.82-8.92.77-2.76-2.07,4.24-.72,1.72.41-.78.74-1.6,1.14-2.38.78-1.57,1.63-3.11,2.53-4.62.79-1.31,1.61-2.6,2.48-3.86a13,13,0,0,0,1.52-2.13C62,69.15,58.58,73,61,70.24a93.39,93.39,0,0,1,7.24-7.51c.67-.6,4.83-3.95,1.75-1.58-2.92,2.25,1.11-.73,2-1.3a93.48,93.48,0,0,1,9.17-5.14c3.45-1.77-4.58,1.58.13,0,1.47-.51,2.93-1,4.43-1.48q2.58-.76,5.22-1.33c.88-.19,1.77-.34,2.66-.52,3.08-.61-1,.22-1.92.22,3.47,0,6.94-.55,10.43-.45,1.63,0,3.24.2,4.86.3,3.85.23-1.51-.09-1.9-.29a14.26,14.26,0,0,0,3.35.61,87.07,87.07,0,0,1,10.94,3.17c2.17.73,1,1.53-1.7-.76a12.24,12.24,0,0,0,2.4,1.12c1.77.87,3.5,1.82,5.2,2.83,1.5.9,2.93,1.89,4.39,2.85.74.49,3.14,2.33.35.19-3-2.29.13.16.77.71a86.58,86.58,0,0,1,7.8,7.88,9.65,9.65,0,0,0,1.25,1.51c-2-2.67-2.54-3.33-1.54-2,.39.53.77,1.06,1.14,1.6q1.49,2.16,2.82,4.43c.88,1.51,1.72,3.06,2.49,4.63a13,13,0,0,0,1.12,2.4c-1.07-1.18-1.72-4.66-.53-1.07a85.16,85.16,0,0,1,3.08,11c.17.85.22,1.86.47,2.68a16.47,16.47,0,1,0-.29-1.9c.17,2.33.31,4.63.33,7,.12,11.77,10.27,23,22.5,22.5S194,112.61,193.9,100c-.38-40.22-25.72-74.91-63.21-88.71-35.22-13-78-1.21-101.9,27.63-25.48,30.77-30.33,75-9.2,109.6,21,34.32,61,50.85,100.12,43.26,43.07-8.35,73.78-48.7,74.19-91.78.12-11.77-10.43-23-22.5-22.5C159.12,78.05,149,87.38,148.9,100Z"/></svg>