<svg id="Layer_1" data-name="Layer 1" xmlns="http://www.w3.org/2000/svg" viewBox="0 0 200 200"><defs><style>.cls-1{fill:#6370b5;}</style></defs><path class="cls-1" d="M12.69,44.51l48.1,48.1,77.09,77.09,17.61,17.61c8.34,8.34,23.6,9,31.82,0s8.9-22.92,0-31.82l-48.1-48.1L62.12,30.3,44.51,12.69c-8.34-8.34-23.6-9-31.82,0s-8.9,22.92,0,31.82Z"/><path class="cls-1" d="M155.49,12.69l-48.1,48.1L30.3,137.88,12.69,155.49c-8.34,8.34-9,23.6,0,31.82s22.92,8.9,31.82,0l48.1-48.1L169.7,62.12l17.61-17.61c8.34-8.34,9-23.6,0-31.82s-22.92-8.9-31.82,0Z"/></svg>